<mxfile host="app.diagrams.net" modified="2023-10-08T20:51:20.367Z" agent="Mozilla/5.0 (Windows NT 10.0; Win64; x64) AppleWebKit/537.36 (KHTML, like Gecko) Chrome/117.0.0.0 Safari/537.36" version="22.0.4" etag="BssMcOg7djnoU6Gyc0Tl" type="github">
  <diagram name="Page-1" id="PG20Rn7TrUF3lR5pipbr">
    <mxGraphModel>
      <root>
        <mxCell id="0" />
        <mxCell id="1" parent="0" />
      </root>
    </mxGraphModel>
  </diagram>
</mxfile>
